<svg width="26" height="23" viewBox="0 0 26 23" fill="none" xmlns="http://www.w3.org/2000/svg">
<path d="M24.8998 9.96905L24.95 15.6831C24.9852 19.683 22.6615 21.4177 19.1533 21.4485L7.45938 21.5513C3.95121 21.5821 1.59737 19.8884 1.56224 15.8886L1.49197 7.88887C1.45683 3.88902 3.78055 2.15426 7.28872 2.12344L15.4745 2.05154" stroke="#02AEEB" stroke-width="1.71429" stroke-miterlimit="10" stroke-linecap="round" stroke-linejoin="round"/>
<path d="M7.34387 8.40894L11.0292 11.2338C12.2419 12.1603 14.2181 12.143 15.4144 11.1953L16.7848 10.1089" stroke="#02AEEB" stroke-width="1.71429" stroke-miterlimit="10" stroke-linecap="round" stroke-linejoin="round"/>
<path d="M21.9512 7.1376C23.5658 7.12342 24.8634 5.83278 24.8496 4.25489C24.8357 2.677 23.5156 1.40935 21.901 1.42354C20.2864 1.43772 18.9888 2.72836 19.0026 4.30625C19.0165 5.88415 20.3366 7.15179 21.9512 7.1376Z" stroke="#02AEEB" stroke-width="1.71429" stroke-miterlimit="10" stroke-linecap="round" stroke-linejoin="round"/>
</svg>
