<svg width="26" height="23" viewBox="0 0 26 23" fill="none" xmlns="http://www.w3.org/2000/svg">
<path d="M24.8999 9.96905L24.9501 15.6831C24.9852 19.683 22.6615 21.4177 19.1533 21.4485L7.45945 21.5513C3.95127 21.5821 1.59744 19.8884 1.5623 15.8886L1.49203 7.88887C1.45689 3.88902 3.78061 2.15426 7.28878 2.12344L15.4745 2.05154" stroke="#02AEEB" stroke-width="1.71429" stroke-miterlimit="10" stroke-linecap="round" stroke-linejoin="round"/>
<path d="M7.34394 8.40894L11.0292 11.2338C12.2419 12.1603 14.2182 12.143 15.4144 11.1953L16.7849 10.1089" stroke="#02AEEB" stroke-width="1.71429" stroke-miterlimit="10" stroke-linecap="round" stroke-linejoin="round"/>
<path d="M21.9513 7.1376C23.5659 7.12342 24.8635 5.83278 24.8497 4.25489C24.8358 2.677 23.5157 1.40935 21.9011 1.42354C20.2865 1.43772 18.9889 2.72836 19.0027 4.30625C19.0166 5.88415 20.3367 7.15179 21.9513 7.1376Z" stroke="#02AEEB" stroke-width="1.71429" stroke-miterlimit="10" stroke-linecap="round" stroke-linejoin="round"/>
</svg>
