<svg width="27" height="28" viewBox="0 0 27 28" fill="none" xmlns="http://www.w3.org/2000/svg">
<path d="M12.8685 14.0256L12.5278 6.22054C12.521 6.06528 12.5762 5.9137 12.6811 5.79912C12.7861 5.68455 12.9323 5.61638 13.0876 5.6096C13.2428 5.60282 13.3944 5.65799 13.509 5.76298C13.6236 5.86797 13.6917 6.01417 13.6985 6.16942L14.0393 13.9745C14.0461 14.1297 13.9909 14.2813 13.8859 14.3959C13.7809 14.5105 13.6347 14.5786 13.4795 14.5854C13.3242 14.5922 13.1726 14.537 13.0581 14.432C12.9435 14.3271 12.8753 14.1809 12.8685 14.0256ZM18.129 6.26923C17.9968 6.2046 17.8452 6.19202 17.7043 6.23401C17.5633 6.27599 17.4433 6.36946 17.368 6.49585C17.2928 6.62225 17.2678 6.77231 17.2981 6.91625C17.3284 7.06019 17.4117 7.18747 17.5315 7.27281C19.9087 8.6812 21.3386 11.0048 21.4541 13.6507C21.5467 15.7725 20.7927 17.8442 19.3579 19.41C17.9231 20.9759 15.925 21.9076 13.8032 22.0002C11.6814 22.0929 9.60974 21.3388 8.04391 19.904C6.47808 18.4692 5.54636 16.4711 5.45372 14.3493C5.3382 11.7034 6.5601 9.26401 8.80548 7.65379C8.91739 7.55834 8.9893 7.42428 9.00694 7.27825C9.02457 7.13222 8.98664 6.9849 8.90067 6.86555C8.8147 6.74619 8.68698 6.66354 8.54289 6.634C8.3988 6.60446 8.24886 6.6302 8.12287 6.7061C5.54934 8.54668 4.14984 11.3516 4.28296 14.4005C4.38916 16.8327 5.45723 19.1232 7.2522 20.768C9.04718 22.4128 11.422 23.2772 13.8543 23.171C16.2866 23.0648 18.5771 21.9967 20.2219 20.2017C21.8667 18.4068 22.7311 16.0319 22.6249 13.5996C22.4917 10.5508 20.8531 7.8785 18.129 6.26923Z" fill="#02AEEB"/>
</svg>
