<svg width="27" height="28" viewBox="0 0 27 28" fill="none" xmlns="http://www.w3.org/2000/svg">
<path d="M12.8684 14.0256L12.5276 6.22054C12.5209 6.06528 12.576 5.9137 12.681 5.79912C12.786 5.68455 12.9322 5.61638 13.0875 5.6096C13.2427 5.60282 13.3943 5.65799 13.5089 5.76298C13.6234 5.86797 13.6916 6.01417 13.6984 6.16942L14.0392 13.9745C14.0459 14.1297 13.9908 14.2813 13.8858 14.3959C13.7808 14.5105 13.6346 14.5786 13.4793 14.5854C13.3241 14.5922 13.1725 14.537 13.0579 14.432C12.9434 14.3271 12.8752 14.1809 12.8684 14.0256ZM18.1288 6.26923C17.9967 6.2046 17.8451 6.19202 17.7041 6.23401C17.5632 6.27599 17.4431 6.36946 17.3679 6.49585C17.2927 6.62225 17.2677 6.77231 17.298 6.91625C17.3283 7.06019 17.4116 7.18747 17.5314 7.27281C19.9086 8.6812 21.3385 11.0048 21.454 13.6507C21.5466 15.7725 20.7926 17.8442 19.3578 19.41C17.9229 20.9759 15.9249 21.9076 13.8031 22.0002C11.6813 22.0929 9.60962 21.3388 8.04379 19.904C6.47796 18.4692 5.54624 16.4711 5.4536 14.3493C5.33808 11.7034 6.55998 9.26401 8.80536 7.65379C8.91727 7.55834 8.98918 7.42428 9.00681 7.27825C9.02445 7.13222 8.98651 6.9849 8.90055 6.86555C8.81458 6.74619 8.68686 6.66354 8.54277 6.634C8.39867 6.60446 8.24874 6.6302 8.12275 6.7061C5.54921 8.54668 4.14972 11.3516 4.28284 14.4005C4.38903 16.8327 5.4571 19.1232 7.25208 20.768C9.04706 22.4128 11.4219 23.2772 13.8542 23.171C16.2865 23.0648 18.577 21.9967 20.2218 20.2017C21.8666 18.4068 22.7309 16.0319 22.6247 13.5996C22.4916 10.5508 20.853 7.8785 18.1288 6.26923Z" fill="#02AEEB"/>
</svg>
