<svg width="24" height="25" viewBox="0 0 24 25" fill="none" xmlns="http://www.w3.org/2000/svg">
<g clip-path="url(#clip0_84_18)">
<path d="M9.38663 21.2979C9.53809 21.8408 9.86542 22.3181 10.3173 22.6551C10.7692 22.992 11.3201 23.1695 11.8836 23.1597C12.4472 23.1499 12.9916 22.9534 13.4315 22.6009C13.8714 22.2485 14.1819 21.7601 14.3145 21.2123M11.5129 1.82301C13.3818 1.79053 15.1871 2.50181 16.5316 3.80038C17.8761 5.09895 18.6496 6.87842 18.6821 8.74735C18.8183 16.5826 21.7032 18.077 22.4753 18.0636L1.12135 18.4346C1.9098 18.4209 4.7244 16.8111 4.58853 8.99226C4.55605 7.12333 5.26733 5.31805 6.5659 3.97356C7.86446 2.62906 9.64394 1.85549 11.5129 1.82301Z" stroke="#00AFF0" stroke-width="1.64286" stroke-linecap="round" stroke-linejoin="round"/>
</g>
<defs>
<clipPath id="clip0_84_18">
<rect width="23" height="23" fill="white" transform="translate(0.000305176 1.20166) rotate(-0.995541)"/>
</clipPath>
</defs>
</svg>
