<svg width="24" height="25" viewBox="0 0 24 25" fill="none" xmlns="http://www.w3.org/2000/svg">
<g clip-path="url(#clip0_84_79)">
<path d="M9.38654 21.2979C9.538 21.8408 9.86532 22.3181 10.3172 22.6551C10.7691 22.992 11.32 23.1695 11.8835 23.1597C12.4471 23.1499 12.9915 22.9534 13.4314 22.6009C13.8713 22.2485 14.1819 21.7601 14.3144 21.2123M11.5128 1.82301C13.3817 1.79053 15.187 2.50181 16.5315 3.80038C17.876 5.09895 18.6495 6.87842 18.682 8.74735C18.8182 16.5826 21.7031 18.077 22.4752 18.0636L1.12126 18.4346C1.90971 18.4209 4.7243 16.8111 4.58844 8.99226C4.55596 7.12333 5.26724 5.31805 6.56581 3.97356C7.86437 2.62906 9.64385 1.85549 11.5128 1.82301Z" stroke="#00AFF0" stroke-width="1.64286" stroke-linecap="round" stroke-linejoin="round"/>
</g>
<defs>
<clipPath id="clip0_84_79">
<rect width="23" height="23" fill="white" transform="translate(0.000244141 1.20166) rotate(-0.995541)"/>
</clipPath>
</defs>
</svg>
