<svg width="26" height="26" viewBox="0 0 26 26" fill="none" xmlns="http://www.w3.org/2000/svg">
<path d="M20.8297 13.7934C20.6616 13.618 20.563 13.3875 20.5524 13.1448C20.5418 12.9022 20.6199 12.6639 20.7721 12.4746L21.9881 10.9802C22.1221 10.8168 22.201 10.6152 22.2134 10.4043C22.2257 10.1934 22.171 9.98392 22.0569 9.80604L19.9079 6.43657C19.795 6.25885 19.6288 6.12133 19.4331 6.0436C19.2374 5.96587 19.0221 5.95191 18.818 6.0037L16.9564 6.46535C16.7195 6.52516 16.469 6.49622 16.252 6.38399C16.0351 6.27176 15.8667 6.084 15.7787 5.85614L15.0894 4.05449C15.0137 3.85898 14.8785 3.6922 14.7029 3.57773C14.5273 3.46326 14.3201 3.40689 14.1107 3.41657L10.1145 3.59105C9.89613 3.58919 9.68316 3.65885 9.50812 3.7894C9.33308 3.91995 9.20558 4.1042 9.14509 4.31402L8.66545 6.16671C8.59762 6.40137 8.44625 6.60309 8.2399 6.73381C8.03354 6.86452 7.78648 6.91519 7.54533 6.87624L5.6006 6.58079C5.40413 6.56172 5.20641 6.60122 5.03235 6.69432C4.8583 6.78742 4.71568 6.92995 4.62248 7.10395L2.77531 10.6479C2.67445 10.8331 2.63474 11.0455 2.66185 11.2546C2.68896 11.4638 2.7815 11.659 2.92625 11.8124L4.25785 13.1957C4.42598 13.371 4.52454 13.6015 4.53514 13.8442C4.54574 14.0869 4.46764 14.3251 4.31543 14.5144L3.10945 16.0084C2.97863 16.1738 2.90345 16.3764 2.89467 16.5871C2.8859 16.7978 2.94397 17.0059 3.06058 17.1817L5.2096 20.5511C5.32256 20.7289 5.48874 20.8664 5.68445 20.9441C5.88016 21.0218 6.09541 21.0358 6.29952 20.984L8.16116 20.5224C8.39799 20.4626 8.64853 20.4915 8.86549 20.6037C9.08245 20.716 9.25083 20.9037 9.33885 21.1316L10.0281 22.9332C10.1066 23.137 10.2497 23.3094 10.4355 23.4242C10.6212 23.539 10.8394 23.5898 11.0568 23.569L15.053 23.3945C15.2625 23.3859 15.4639 23.3117 15.6289 23.1823C15.7939 23.053 15.9141 22.8751 15.9724 22.6737L16.502 20.8188C16.5699 20.5842 16.7212 20.3824 16.9276 20.2517C17.1339 20.121 17.381 20.0703 17.6221 20.1093L19.5169 20.4069C19.7248 20.4407 19.938 20.4081 20.1262 20.3136C20.3144 20.2191 20.4679 20.0676 20.565 19.8807L22.4121 16.3368C22.5103 16.1496 22.5466 15.9362 22.5158 15.7272C22.4851 15.5181 22.389 15.3241 22.2412 15.1731L20.8297 13.7934ZM19.3996 15.1971L20.2381 16.0613L19.0561 18.3351L17.8668 18.1468C17.1408 18.0311 16.3977 18.186 15.7784 18.5821C15.1591 18.9781 14.7068 19.5878 14.5073 20.2953L14.1765 21.4308L11.6189 21.5425L11.2096 20.4193C10.9492 19.7318 10.4455 19.1639 9.794 18.8233C9.14255 18.4827 8.38872 18.3932 7.67561 18.5717L6.5072 18.8629L5.11204 16.7117L5.87202 15.7777C6.33951 15.2067 6.58017 14.4835 6.54798 13.7463C6.5158 13.0091 6.21302 12.3095 5.69754 11.7815L4.85904 10.9173L6.04186 8.66352L7.23121 8.85182C7.95717 8.96749 8.70032 8.81258 9.31961 8.41651C9.9389 8.02044 10.3912 7.41077 10.5907 6.70324L10.921 5.55774L13.4786 5.44607L13.908 6.56841C14.1683 7.25587 14.6721 7.82379 15.3235 8.16438C15.975 8.50498 16.7288 8.59452 17.4419 8.41602L18.6103 8.12478L19.9859 10.2868L19.226 11.2209C18.7639 11.7903 18.5265 12.5093 18.5585 13.2419C18.5904 13.9745 18.8897 14.6701 19.3996 15.1971ZM12.3743 9.4981C11.5839 9.53261 10.8215 9.80071 10.1835 10.2685C9.54553 10.7363 9.06058 11.3828 8.79 12.1262C8.51942 12.8696 8.47536 13.6766 8.6634 14.445C8.85144 15.2135 9.26313 15.9089 9.84641 16.4434C10.4297 16.9779 11.1584 17.3274 11.9403 17.4477C12.7222 17.5681 13.5222 17.4539 14.2392 17.1195C14.9562 16.7852 15.558 16.2457 15.9684 15.5694C16.3788 14.893 16.5795 14.1102 16.545 13.3198C16.4987 12.26 16.0333 11.2619 15.2511 10.5452C14.469 9.82847 13.4342 9.45183 12.3743 9.4981ZM12.636 15.4924C12.2408 15.5096 11.8494 15.4093 11.5112 15.2041C11.1731 14.9989 10.9033 14.698 10.7362 14.3395C10.569 13.981 10.5119 13.581 10.572 13.19C10.6322 12.7991 10.807 12.4348 11.0742 12.1431C11.3415 11.8515 11.6892 11.6456 12.0734 11.5516C12.4576 11.4576 12.8611 11.4796 13.2328 11.6149C13.6045 11.7502 13.9278 11.9927 14.1617 12.3117C14.3956 12.6307 14.5296 13.0119 14.5469 13.4071C14.57 13.937 14.3817 14.4544 14.0233 14.8455C13.665 15.2365 13.1659 15.4693 12.636 15.4924Z" fill="#00AFF0"/>
</svg>
