<svg width="26" height="26" viewBox="0 0 26 26" fill="none" xmlns="http://www.w3.org/2000/svg">
<path d="M20.8298 13.7934C20.6617 13.618 20.5631 13.3875 20.5525 13.1448C20.5419 12.9022 20.62 12.6639 20.7722 12.4746L21.9882 10.9802C22.1223 10.8168 22.2011 10.6152 22.2135 10.4043C22.2259 10.1934 22.1711 9.98392 22.0571 9.80604L19.908 6.43657C19.7951 6.25885 19.6289 6.12133 19.4332 6.0436C19.2375 5.96587 19.0222 5.95191 18.8181 6.0037L16.9565 6.46535C16.7197 6.52516 16.4691 6.49622 16.2522 6.38399C16.0352 6.27176 15.8668 6.084 15.7788 5.85614L15.0896 4.05449C15.0139 3.85898 14.8787 3.6922 14.703 3.57773C14.5274 3.46326 14.3202 3.40689 14.1108 3.41657L10.1146 3.59105C9.89625 3.58919 9.68329 3.65885 9.50824 3.7894C9.3332 3.91995 9.2057 4.1042 9.14522 4.31402L8.66557 6.16671C8.59775 6.40137 8.44637 6.60309 8.24002 6.73381C8.03366 6.86452 7.7866 6.91519 7.54546 6.87624L5.60072 6.58079C5.40425 6.56172 5.20653 6.60122 5.03248 6.69432C4.85842 6.78742 4.71581 6.92995 4.62261 7.10395L2.77543 10.6479C2.67458 10.8331 2.63486 11.0455 2.66197 11.2546C2.68908 11.4638 2.78163 11.659 2.92637 11.8124L4.25798 13.1957C4.4261 13.371 4.52467 13.6015 4.53526 13.8442C4.54586 14.0869 4.46776 14.3251 4.31555 14.5144L3.10957 16.0084C2.97875 16.1738 2.90357 16.3764 2.89479 16.5871C2.88602 16.7978 2.94409 17.0059 3.0607 17.1817L5.20972 20.5511C5.32268 20.7289 5.48886 20.8664 5.68457 20.9441C5.88028 21.0218 6.09553 21.0358 6.29964 20.984L8.16128 20.5224C8.39811 20.4626 8.64865 20.4915 8.86561 20.6037C9.08257 20.716 9.25095 20.9037 9.33897 21.1316L10.0282 22.9332C10.1068 23.137 10.2498 23.3094 10.4356 23.4242C10.6213 23.539 10.8396 23.5898 11.0569 23.569L15.0531 23.3945C15.2626 23.3859 15.4641 23.3117 15.629 23.1823C15.794 23.053 15.9142 22.8751 15.9726 22.6737L16.5021 20.8188C16.57 20.5842 16.7213 20.3824 16.9277 20.2517C17.1341 20.121 17.3811 20.0703 17.6223 20.1093L19.5171 20.4069C19.7249 20.4407 19.9381 20.4081 20.1263 20.3136C20.3145 20.2191 20.4681 20.0676 20.5651 19.8807L22.4123 16.3368C22.5104 16.1496 22.5467 15.9362 22.516 15.7272C22.4853 15.5181 22.3891 15.3241 22.2413 15.1731L20.8298 13.7934ZM19.3997 15.1971L20.2382 16.0613L19.0562 18.3351L17.8669 18.1468C17.1409 18.0311 16.3978 18.186 15.7785 18.5821C15.1592 18.9781 14.7069 19.5878 14.5074 20.2953L14.1766 21.4308L11.6191 21.5425L11.2097 20.4193C10.9493 19.7318 10.4456 19.1639 9.79413 18.8233C9.14267 18.4827 8.38884 18.3932 7.67573 18.5717L6.50732 18.8629L5.11216 16.7117L5.87214 15.7777C6.33963 15.2067 6.58029 14.4835 6.54811 13.7463C6.51592 13.0091 6.21314 12.3095 5.69766 11.7815L4.85917 10.9173L6.04199 8.66352L7.23133 8.85182C7.95729 8.96749 8.70045 8.81258 9.31974 8.41651C9.93902 8.02044 10.3913 7.41077 10.5908 6.70324L10.9212 5.55774L13.4787 5.44607L13.9081 6.56841C14.1685 7.25587 14.6722 7.82379 15.3236 8.16438C15.9751 8.50498 16.7289 8.59452 17.442 8.41602L18.6105 8.12478L19.9861 10.2868L19.2261 11.2209C18.7641 11.7903 18.5266 12.5093 18.5586 13.2419C18.5906 13.9745 18.8898 14.6701 19.3997 15.1971ZM12.3744 9.4981C11.584 9.53261 10.8217 9.80071 10.1837 10.2685C9.54566 10.7363 9.0607 11.3828 8.79012 12.1262C8.51954 12.8696 8.47549 13.6766 8.66353 14.445C8.85156 15.2135 9.26325 15.9089 9.84653 16.4434C10.4298 16.9779 11.1585 17.3274 11.9404 17.4477C12.7223 17.5681 13.5224 17.4539 14.2394 17.1195C14.9564 16.7852 15.5581 16.2457 15.9685 15.5694C16.379 14.893 16.5796 14.1102 16.5451 13.3198C16.4988 12.26 16.0334 11.2619 15.2513 10.5452C14.4691 9.82847 13.4343 9.45183 12.3744 9.4981ZM12.6361 15.4924C12.2409 15.5096 11.8495 15.4093 11.5113 15.2041C11.1732 14.9989 10.9035 14.698 10.7363 14.3395C10.5691 13.981 10.512 13.581 10.5722 13.19C10.6323 12.7991 10.8071 12.4348 11.0743 12.1431C11.3416 11.8515 11.6893 11.6456 12.0735 11.5516C12.4577 11.4576 12.8612 11.4796 13.2329 11.6149C13.6046 11.7502 13.9279 11.9927 14.1618 12.3117C14.3957 12.6307 14.5297 13.0119 14.547 13.4071C14.5701 13.937 14.3818 14.4544 14.0234 14.8455C13.6651 15.2365 13.1661 15.4693 12.6361 15.4924Z" fill="#00AFF0"/>
</svg>
